#!OML:ASF X:\für Bonn\!DataBase\2005_08_12_Daniel\c3d\Daniel.ASF
:FULLY-SPECIFIED
:DEGREES
113
root -3.19679 8.20309 -1.12232 388.779 -88.143 -416.003
lowerback 52.4943 -4.33041 5.46956
upperback 4.0556 -3.96782 -2.4997
thorax -16.9814 -2.46399 -3.19661
lowerneck 7.51449 2.12351 -2.03625
upperneck -3.65628 2.55814 -1.14074
head -2.46938 1.33723 -0.126311
rclavicle 2.05742e-014 -3.57812e-015
rhumerus 82.3335 -19.75 -185.52
rradius 7.97678
rwrist 149.378
rhand -24.2356 11.773
rfingers 7.12502
rthumb 2.24981 -18.1949
lclavicle 2.05742e-014 -3.57812e-015
lhumerus 63.1964 2.75397 94.6304
lradius 9.5975
lwrist -69.0336
lhand -20.6517 -0.777229
lfingers 7.12502
lthumb 5.7106 29.1258
rfemur 11.4132 -66.6142 -98.9566
rtibia 142.35
rfoot 368.134 69.0813
rtoes -2.26574
lfemur -218.313 116.961 -133.486
ltibia 140.596
lfoot 7.61973 -69.6135
ltoes 14.3807
114
root -3.191 8.38527 -1.11827 389.473 -88.1779 -416.35
lowerback 52.2199 -4.33199 5.50861
upperback 3.99492 -3.9414 -2.49203
thorax -17.0177 -2.45019 -3.22675
lowerneck 7.52363 2.12638 -2.01095
upperneck -3.72007 2.56223 -1.16469
head -2.49176 1.34042 -0.139149
rclavicle 6.85807e-015 3.57812e-015
rhumerus 82.2367 -19.5478 -185.311
rradius 8.01913
rwrist 149.276
rhand -24.146 11.6996
rfingers 7.12502
rthumb 2.3364 -18.2673
lclavicle 6.85807e-015 3.57812e-015
lhumerus 63.6998 2.84374 94.9985
lradius 9.45804
lwrist -69.19
lhand -20.5484 -0.653242
lfingers 7.12502
lthumb 5.81035 29.2471
rfemur 4.76274 -67.0893 -89.6504
rtibia 140.851
rfoot 370.364 67.0198
rtoes -1.98864
lfemur -220.283 118.837 -137.91
ltibia 139.173
lfoot 6.72988 -68.094
ltoes 14.5299
115
root -3.18936 8.56878 -1.1143 390.417 -88.2267 -416.958
lowerback 51.8744 -4.31204 5.53346
upperback 3.96307 -3.90035 -2.47363
thorax -17.0055 -2.42957 -3.24803
lowerneck 7.61774 2.12461 -2.04059
upperneck -3.84069 2.55242 -1.1691
head -2.55023 1.33767 -0.137249
rclavicle 1.30204e-014 9.54166e-015
rhumerus 82.1376 -19.3794 -185.081
rradius 8.05096
rwrist 149.175
rhand -24.0949 11.6408
rfingers 7.12502
rthumb 2.3857 -18.3256
lclavicle 1.30204e-014 9.54166e-015
lhumerus 64.153 2.92486 95.3889
lradius 9.36909
lwrist -69.4676
lhand -20.4074 -0.499904
lfingers 7.12502
lthumb 5.94646 29.3966
rfemur -2.04654 -67.0149 -80.2716
rtibia 139.344
rfoot 371.65 65.0296
rtoes -1.80467
lfemur -221.772 120.775 -141.802
ltibia 137.725
lfoot 5.79457 -66.6195
ltoes 14.7035
116
root -3.18877 8.75421 -1.11104 391.382 -88.2611 -417.585
lowerback 51.4813 -4.29319 5.55426
upperback 3.94795 -3.86589 -2.45291
thorax -16.965 -2.41125 -3.26299
lowerneck 7.66394 2.12924 -2.04091
upperneck -3.91274 2.55489 -1.1932
head -2.5828 1.34058 -0.146227
rclavicle 7.85199e-015 2.0276e-014
rhumerus 82.0181 -19.2268 -184.858
rradius 8.10737
rwrist 149.073
rhand -24.0166 11.6571
rfingers 7.12502
rthumb 2.46136 -18.3085
lclavicle 7.85199e-015 2.0276e-014
lhumerus 64.5676 3.00579 95.7712
lradius 9.32626
lwrist -69.8357
lhand -20.1947 -0.318727
lfingers 7.12502
lthumb 6.15183 29.572
rfemur -8.85615 -66.4159 -70.8804
rtibia 137.815
rfoot 372.191 62.9994
rtoes -1.69298
lfemur -223.063 122.848 -145.436
ltibia 136.249
lfoot 5.0408 -65.1098
ltoes 14.8513
117
root -3.18932 8.93921 -1.10681 391.998 -88.3022 -417.876
lowerback 51.0728 -4.26494 5.56389
upperback 3.93245 -3.82438 -2.42006
thorax -16.919 -2.38917 -3.26319
lowerneck 7.73707 2.13694 -2.1361
upperneck -4.02083 2.55438 -1.15061
head -2.6351 1.34179 -0.118029
rclavicle -1.07344e-014 -1.07344e-014
rhumerus 81.9321 -19.1099 -184.605
rradius 8.10578
rwrist 148.976
rhand -23.9262 11.663
rfingers 7.12502
rthumb 2.54868 -18.3016
lclavicle -1.07344e-014 -1.07344e-014
lhumerus 64.8679 3.12382 96.1644
lradius 9.41094
lwrist -70.2863
lhand -19.876 -0.189214
lfingers 7.12502
lthumb 6.45948 29.6923
rfemur -14.9577 -65.3314 -62.2872
rtibia 136.28
rfoot 372.45 61.0109
rtoes -1.66197
lfemur -224.07 124.952 -148.768
ltibia 134.755
lfoot 4.24566 -63.6154
ltoes 14.9319
118
root -3.19049 9.12443 -1.10238 392.51 -88.338 -418.067
lowerback 50.6427 -4.24088 5.58549
upperback 3.92231 -3.78572 -2.40239
thorax -16.8631 -2.36885 -3.28558
lowerneck 7.7303 2.14582 -2.14542
upperneck -4.05679 2.56535 -1.14662
head -2.64624 1.34767 -0.11589
rclavicle -9.0447e-015 -1.51076e-014
rhumerus 81.8509 -19.0335 -184.373
rradius 8.13708
rwrist 148.875
rhand -23.832 11.6772
rfingers 7.12502
rthumb 2.63962 -18.2862
lclavicle -9.0447e-015 -1.51076e-014
lhumerus 65.1015 3.2046 96.547
lradius 9.51473
lwrist -70.772
lhand -19.6086 0.00287737
lfingers 7.12502
lthumb 6.71771 29.8763
rfemur -20.3651 -63.8099 -54.4234
rtibia 134.723
rfoot 372.594 59.0341
rtoes -1.52673
lfemur -224.827 127.067 -151.776
ltibia 133.25
lfoot 3.31781 -62.1595
ltoes 14.9962
119
root -3.19366 9.30992 -1.09786 393.672 -88.3771 -418.912
lowerback 50.1802 -4.21026 5.59744
upperback 3.91623 -3.74326 -2.36923
thorax -16.793 -2.34618 -3.28891
lowerneck 7.70808 2.1561 -2.2106
upperneck -4.07581 2.57391 -1.12639
head -2.64988 1.35246 -0.0984576
rclavicle 2.98177e-015 4.77083e-015
rhumerus 81.7392 -19.0051 -184.118
rradius 8.15409
rwrist 148.804
rhand -23.6843 11.6925
rfingers 7.12502
rthumb 2.78226 -18.2691
lclavicle 2.98177e-015 4.77083e-015
lhumerus 65.2942 3.33208 96.9302
lradius 9.59136
lwrist -71.3153
lhand -19.3921 0.200784
lfingers 7.12502
lthumb 6.92663 30.0675
rfemur -24.7518 -62.004 -47.6313
rtibia 133.159
rfoot 372.384 57.1331
rtoes -1.56991
lfemur -225.318 129.116 -154.44
ltibia 131.744
lfoot 2.12448 -60.7844
ltoes 14.8825
120
root -3.19781 9.49284 -1.094 394.803 -88.4126 -419.757
lowerback 49.7188 -4.17523 5.6014
upperback 3.92028 -3.70257 -2.34167
thorax -16.709 -2.32405 -3.29415
lowerneck 7.67556 2.16826 -2.25143
upperneck -4.09821 2.58824 -1.10158
head -2.65247 1.35963 -0.0839324
rclavicle 2.0276e-014 1.98785e-015
rhumerus 81.629 -19.0142 -183.875
rradius 8.16989
rwrist 148.674
rhand -23.5385 11.7522
rfingers 7.12502
rthumb 2.92309 -18.2075
lclavicle 2.0276e-014 1.98785e-015
lhumerus 65.4648 3.44094 97.3031
lradius 9.63428
lwrist -71.889
lhand -19.1957 0.402423
lfingers 7.12502
lthumb 7.11625 30.2628
rfemur -28.1703 -60.0214 -41.8961
rtibia 131.606
rfoot 371.948 55.3599
rtoes -1.47347
lfemur -225.597 131.12 -156.8
ltibia 130.232
lfoot 1.1519 -59.4661
ltoes 14.8323
121
root -3.20222 9.67834 -1.09092 395.533 -88.4418 -420.182
lowerback 49.2422 -4.13993 5.61139
upperback 3.91238 -3.65725 -2.31502
thorax -16.6343 -2.29984 -3.30613
lowerneck 7.66496 2.18613 -2.31729
upperneck -4.10693 2.60855 -1.05286
head -2.65537 1.36926 -0.0578575
rclavicle -1.50082e-014 3.97569e-016
rhumerus 81.5301 -19.0089 -183.636
rradius 8.21629
rwrist 148.576
rhand -23.3245 11.8195
rfingers 7.12502
rthumb 3.12975 -18.1372
lclavicle -1.50082e-014 3.97569e-016
lhumerus 65.5742 3.53629 97.6813
lradius 9.66091
lwrist -72.466
lhand -19.1204 0.565337
lfingers 7.12502
lthumb 7.18895 30.4232
rfemur -30.8275 -57.939 -36.9516
rtibia 130.016
rfoot 371.541 53.6292
rtoes -1.37796
lfemur -225.809 133.116 -159.056
ltibia 128.693
lfoot 0.205125 -58.0845
ltoes 14.674
122
root -3.20842 9.86864 -1.08839 396.33 -88.4849 -420.684
lowerback 48.7703 -4.0948 5.59195
upperback 3.89719 -3.6146 -2.28525
thorax -16.5662 -2.27516 -3.29929
lowerneck 7.70885 2.19726 -2.37826
upperneck -4.15877 2.61693 -1.02161
head -2.68271 1.37405 -0.0386852
rclavicle 2.63887e-014 -5.56597e-015
rhumerus 81.4203 -19.0238 -183.398
rradius 8.22577
rwrist 148.388
rhand -23.1001 11.8839
rfingers 7.12502
rthumb 3.34643 -18.0696
lclavicle 2.63887e-014 -5.56597e-015
lhumerus 65.6277 3.66137 98.0487
lradius 9.70367
lwrist -73.0428
lhand -19.0437 0.689623
lfingers 7.12502
lthumb 7.26296 30.545
rfemur -32.8943 -55.7601 -32.5915
rtibia 128.367
rfoot 370.88 51.9361
rtoes -1.46058
lfemur -225.792 135.071 -161.106
ltibia 127.1
lfoot -0.642346 -56.7181
ltoes 14.6894
123
root -3.21566 10.0597 -1.08529 397.317 -88.4982 -421.388
lowerback 48.3153 -4.07232 5.60808
upperback 3.8805 -3.57996 -2.25343
thorax -16.5011 -2.25583 -3.30238
lowerneck 7.63862 2.22064 -2.4244
upperneck -4.13336 2.64728 -1.00031
head -2.66224 1.38876 -0.024264
rclavicle -1.51076e-014 -9.54166e-015
rhumerus 81.2966 -19.0347 -183.16
rradius 8.25387
rwrist 148.231
rhand -22.9111 11.9792
rfingers 7.12502
rthumb 3.52891 -17.9713
lclavicle -1.51076e-014 -9.54166e-015
lhumerus 65.6771 3.77399 98.4235
lradius 9.70821
lwrist -73.625
lhand -19.0214 0.913
lfingers 7.12502
lthumb 7.28447 30.7676
rfemur -34.3372 -53.5868 -28.8579
rtibia 126.679
rfoot 370.319 50.34
rtoes -1.34218
lfemur -225.63 136.959 -162.923
ltibia 125.497
lfoot -1.42616 -55.4
ltoes 14.6178
124
root -3.22393 10.2502 -1.08279 398.188 -88.5398 -421.998
lowerback 47.0526 -3.96094 5.58281
upperback 4.86157 -3.52815 -2.16058
thorax -16.6286 -2.2453 -3.35481
lowerneck 7.60303 2.22574 -2.44933
upperneck -4.1089 2.65297 -0.999153
head -2.64777 1.39158 -0.0192268
rclavicle 1.72446e-014 3.97569e-015
rhumerus 81.2065 -19.0869 -182.918
rradius 8.24884
rwrist 148.048
rhand -22.7512 12.0444
rfingers 7.12502
rthumb 3.68335 -17.9035
lclavicle 1.72446e-014 3.97569e-015
lhumerus 65.664 3.84963 98.8158
lradius 9.74962
lwrist -74.1522
lhand -18.902 1.08265
lfingers 7.12502
lthumb 7.39979 30.9332
rfemur -35.3336 -51.4693 -25.6889
rtibia 124.991
rfoot 369.615 48.8685
rtoes -1.34459
lfemur -225.283 138.743 -164.569
ltibia 123.871
lfoot -2.19171 -54.1432
ltoes 14.5634
125
root -3.23252 10.4366 -1.08062 398.654 -88.5673 -422.198
lowerback 46.605 -3.92573 5.56654
upperback 4.81687 -3.49293 -2.12781
thorax -16.5526 -2.22338 -3.3418
lowerneck 7.56166 2.25577 -2.5306
upperneck -4.10032 2.68907 -0.952339
head -2.63954 1.40912 0.00866517
rclavicle -1.32689e-014 -3.18055e-015
rhumerus 81.0781 -19.1528 -182.672
rradius 8.2643
rwrist 147.834
rhand -22.6292 12.1619
rfingers 7.12502
rthumb 3.8012 -17.784
lclavicle -1.32689e-014 -3.18055e-015
lhumerus 65.6662 3.95648 99.1973
lradius 9.72302
lwrist -74.6777
lhand -18.8226 1.25911
lfingers 7.12502
lthumb 7.47641 31.107
rfemur -35.9039 -49.5285 -23.0297
rtibia 123.306
rfoot 368.978 47.5355
rtoes -1.21882
lfemur -224.898 140.43 -166.066
ltibia 122.271
lfoot -2.89397 -52.9513
ltoes 14.4866
